<svg version="1.1" xmlns="http://www.w3.org/2000/svg" width="220px" height="220px" viewBox="0 0 220 220" preserveAspectRatio="xMinYMin meet" xmlns:xlink="http://www.w3.org/1999/xlink" xmlns:svgjs="http://svgjs.com/svgjs"><rect width="100%" height="100%" fill="#ffffff" cx="0" cy="0"/><path d="M11,11l6,0 0,6 -6,0 0,-6z M17,11l6,0 0,6 -6,0 0,-6z M23,11l6,0 0,6 -6,0 0,-6z M29,11l6,0 0,6 -6,0 0,-6z M35,11l6,0 0,6 -6,0 0,-6z M41,11l6,0 0,6 -6,0 0,-6z M47,11l6,0 0,6 -6,0 0,-6z M59,11l6,0 0,6 -6,0 0,-6z M77,11l6,0 0,6 -6,0 0,-6z M83,11l6,0 0,6 -6,0 0,-6z M95,11l6,0 0,6 -6,0 0,-6z M113,11l6,0 0,6 -6,0 0,-6z M167,11l6,0 0,6 -6,0 0,-6z M173,11l6,0 0,6 -6,0 0,-6z M179,11l6,0 0,6 -6,0 0,-6z M185,11l6,0 0,6 -6,0 0,-6z M191,11l6,0 0,6 -6,0 0,-6z M197,11l6,0 0,6 -6,0 0,-6z M203,11l6,0 0,6 -6,0 0,-6z M11,17l6,0 0,6 -6,0 0,-6z M47,17l6,0 0,6 -6,0 0,-6z M65,17l6,0 0,6 -6,0 0,-6z M71,17l6,0 0,6 -6,0 0,-6z M89,17l6,0 0,6 -6,0 0,-6z M95,17l6,0 0,6 -6,0 0,-6z M107,17l6,0 0,6 -6,0 0,-6z M113,17l6,0 0,6 -6,0 0,-6z M119,17l6,0 0,6 -6,0 0,-6z M125,17l6,0 0,6 -6,0 0,-6z M131,17l6,0 0,6 -6,0 0,-6z M137,17l6,0 0,6 -6,0 0,-6z M143,17l6,0 0,6 -6,0 0,-6z M167,17l6,0 0,6 -6,0 0,-6z M203,17l6,0 0,6 -6,0 0,-6z M11,23l6,0 0,6 -6,0 0,-6z M23,23l6,0 0,6 -6,0 0,-6z M29,23l6,0 0,6 -6,0 0,-6z M35,23l6,0 0,6 -6,0 0,-6z M47,23l6,0 0,6 -6,0 0,-6z M71,23l6,0 0,6 -6,0 0,-6z M83,23l6,0 0,6 -6,0 0,-6z M89,23l6,0 0,6 -6,0 0,-6z M95,23l6,0 0,6 -6,0 0,-6z M119,23l6,0 0,6 -6,0 0,-6z M131,23l6,0 0,6 -6,0 0,-6z M137,23l6,0 0,6 -6,0 0,-6z M143,23l6,0 0,6 -6,0 0,-6z M167,23l6,0 0,6 -6,0 0,-6z M179,23l6,0 0,6 -6,0 0,-6z M185,23l6,0 0,6 -6,0 0,-6z M191,23l6,0 0,6 -6,0 0,-6z M203,23l6,0 0,6 -6,0 0,-6z M11,29l6,0 0,6 -6,0 0,-6z M23,29l6,0 0,6 -6,0 0,-6z M29,29l6,0 0,6 -6,0 0,-6z M35,29l6,0 0,6 -6,0 0,-6z M47,29l6,0 0,6 -6,0 0,-6z M83,29l6,0 0,6 -6,0 0,-6z M89,29l6,0 0,6 -6,0 0,-6z M101,29l6,0 0,6 -6,0 0,-6z M113,29l6,0 0,6 -6,0 0,-6z M125,29l6,0 0,6 -6,0 0,-6z M131,29l6,0 0,6 -6,0 0,-6z M137,29l6,0 0,6 -6,0 0,-6z M143,29l6,0 0,6 -6,0 0,-6z M149,29l6,0 0,6 -6,0 0,-6z M155,29l6,0 0,6 -6,0 0,-6z M167,29l6,0 0,6 -6,0 0,-6z M179,29l6,0 0,6 -6,0 0,-6z M185,29l6,0 0,6 -6,0 0,-6z M191,29l6,0 0,6 -6,0 0,-6z M203,29l6,0 0,6 -6,0 0,-6z M11,35l6,0 0,6 -6,0 0,-6z M23,35l6,0 0,6 -6,0 0,-6z M29,35l6,0 0,6 -6,0 0,-6z M35,35l6,0 0,6 -6,0 0,-6z M47,35l6,0 0,6 -6,0 0,-6z M65,35l6,0 0,6 -6,0 0,-6z M77,35l6,0 0,6 -6,0 0,-6z M89,35l6,0 0,6 -6,0 0,-6z M95,35l6,0 0,6 -6,0 0,-6z M113,35l6,0 0,6 -6,0 0,-6z M119,35l6,0 0,6 -6,0 0,-6z M125,35l6,0 0,6 -6,0 0,-6z M131,35l6,0 0,6 -6,0 0,-6z M137,35l6,0 0,6 -6,0 0,-6z M143,35l6,0 0,6 -6,0 0,-6z M167,35l6,0 0,6 -6,0 0,-6z M179,35l6,0 0,6 -6,0 0,-6z M185,35l6,0 0,6 -6,0 0,-6z M191,35l6,0 0,6 -6,0 0,-6z M203,35l6,0 0,6 -6,0 0,-6z M11,41l6,0 0,6 -6,0 0,-6z M47,41l6,0 0,6 -6,0 0,-6z M71,41l6,0 0,6 -6,0 0,-6z M83,41l6,0 0,6 -6,0 0,-6z M89,41l6,0 0,6 -6,0 0,-6z M95,41l6,0 0,6 -6,0 0,-6z M113,41l6,0 0,6 -6,0 0,-6z M119,41l6,0 0,6 -6,0 0,-6z M143,41l6,0 0,6 -6,0 0,-6z M149,41l6,0 0,6 -6,0 0,-6z M167,41l6,0 0,6 -6,0 0,-6z M203,41l6,0 0,6 -6,0 0,-6z M11,47l6,0 0,6 -6,0 0,-6z M17,47l6,0 0,6 -6,0 0,-6z M23,47l6,0 0,6 -6,0 0,-6z M29,47l6,0 0,6 -6,0 0,-6z M35,47l6,0 0,6 -6,0 0,-6z M41,47l6,0 0,6 -6,0 0,-6z M47,47l6,0 0,6 -6,0 0,-6z M59,47l6,0 0,6 -6,0 0,-6z M71,47l6,0 0,6 -6,0 0,-6z M83,47l6,0 0,6 -6,0 0,-6z M95,47l6,0 0,6 -6,0 0,-6z M107,47l6,0 0,6 -6,0 0,-6z M119,47l6,0 0,6 -6,0 0,-6z M131,47l6,0 0,6 -6,0 0,-6z M143,47l6,0 0,6 -6,0 0,-6z M155,47l6,0 0,6 -6,0 0,-6z M167,47l6,0 0,6 -6,0 0,-6z M173,47l6,0 0,6 -6,0 0,-6z M179,47l6,0 0,6 -6,0 0,-6z M185,47l6,0 0,6 -6,0 0,-6z M191,47l6,0 0,6 -6,0 0,-6z M197,47l6,0 0,6 -6,0 0,-6z M203,47l6,0 0,6 -6,0 0,-6z M59,53l6,0 0,6 -6,0 0,-6z M71,53l6,0 0,6 -6,0 0,-6z M77,53l6,0 0,6 -6,0 0,-6z M89,53l6,0 0,6 -6,0 0,-6z M95,53l6,0 0,6 -6,0 0,-6z M101,53l6,0 0,6 -6,0 0,-6z M107,53l6,0 0,6 -6,0 0,-6z M11,59l6,0 0,6 -6,0 0,-6z M17,59l6,0 0,6 -6,0 0,-6z M29,59l6,0 0,6 -6,0 0,-6z M35,59l6,0 0,6 -6,0 0,-6z M47,59l6,0 0,6 -6,0 0,-6z M65,59l6,0 0,6 -6,0 0,-6z M71,59l6,0 0,6 -6,0 0,-6z M77,59l6,0 0,6 -6,0 0,-6z M95,59l6,0 0,6 -6,0 0,-6z M107,59l6,0 0,6 -6,0 0,-6z M113,59l6,0 0,6 -6,0 0,-6z M143,59l6,0 0,6 -6,0 0,-6z M167,59l6,0 0,6 -6,0 0,-6z M203,59l6,0 0,6 -6,0 0,-6z M11,65l6,0 0,6 -6,0 0,-6z M23,65l6,0 0,6 -6,0 0,-6z M53,65l6,0 0,6 -6,0 0,-6z M65,65l6,0 0,6 -6,0 0,-6z M83,65l6,0 0,6 -6,0 0,-6z M101,65l6,0 0,6 -6,0 0,-6z M107,65l6,0 0,6 -6,0 0,-6z M125,65l6,0 0,6 -6,0 0,-6z M137,65l6,0 0,6 -6,0 0,-6z M149,65l6,0 0,6 -6,0 0,-6z M155,65l6,0 0,6 -6,0 0,-6z M173,65l6,0 0,6 -6,0 0,-6z M179,65l6,0 0,6 -6,0 0,-6z M185,65l6,0 0,6 -6,0 0,-6z M191,65l6,0 0,6 -6,0 0,-6z M11,71l6,0 0,6 -6,0 0,-6z M17,71l6,0 0,6 -6,0 0,-6z M23,71l6,0 0,6 -6,0 0,-6z M29,71l6,0 0,6 -6,0 0,-6z M35,71l6,0 0,6 -6,0 0,-6z M47,71l6,0 0,6 -6,0 0,-6z M71,71l6,0 0,6 -6,0 0,-6z M77,71l6,0 0,6 -6,0 0,-6z M89,71l6,0 0,6 -6,0 0,-6z M95,71l6,0 0,6 -6,0 0,-6z M101,71l6,0 0,6 -6,0 0,-6z M107,71l6,0 0,6 -6,0 0,-6z M131,71l6,0 0,6 -6,0 0,-6z M143,71l6,0 0,6 -6,0 0,-6z M149,71l6,0 0,6 -6,0 0,-6z M155,71l6,0 0,6 -6,0 0,-6z M161,71l6,0 0,6 -6,0 0,-6z M173,71l6,0 0,6 -6,0 0,-6z M191,71l6,0 0,6 -6,0 0,-6z M197,71l6,0 0,6 -6,0 0,-6z M203,71l6,0 0,6 -6,0 0,-6z M17,77l6,0 0,6 -6,0 0,-6z M23,77l6,0 0,6 -6,0 0,-6z M41,77l6,0 0,6 -6,0 0,-6z M53,77l6,0 0,6 -6,0 0,-6z M65,77l6,0 0,6 -6,0 0,-6z M71,77l6,0 0,6 -6,0 0,-6z M77,77l6,0 0,6 -6,0 0,-6z M83,77l6,0 0,6 -6,0 0,-6z M95,77l6,0 0,6 -6,0 0,-6z M101,77l6,0 0,6 -6,0 0,-6z M107,77l6,0 0,6 -6,0 0,-6z M113,77l6,0 0,6 -6,0 0,-6z M119,77l6,0 0,6 -6,0 0,-6z M143,77l6,0 0,6 -6,0 0,-6z M155,77l6,0 0,6 -6,0 0,-6z M161,77l6,0 0,6 -6,0 0,-6z M167,77l6,0 0,6 -6,0 0,-6z M191,77l6,0 0,6 -6,0 0,-6z M11,83l6,0 0,6 -6,0 0,-6z M17,83l6,0 0,6 -6,0 0,-6z M35,83l6,0 0,6 -6,0 0,-6z M47,83l6,0 0,6 -6,0 0,-6z M53,83l6,0 0,6 -6,0 0,-6z M65,83l6,0 0,6 -6,0 0,-6z M77,83l6,0 0,6 -6,0 0,-6z M83,83l6,0 0,6 -6,0 0,-6z M101,83l6,0 0,6 -6,0 0,-6z M125,83l6,0 0,6 -6,0 0,-6z M137,83l6,0 0,6 -6,0 0,-6z M155,83l6,0 0,6 -6,0 0,-6z M167,83l6,0 0,6 -6,0 0,-6z M173,83l6,0 0,6 -6,0 0,-6z M203,83l6,0 0,6 -6,0 0,-6z M11,89l6,0 0,6 -6,0 0,-6z M41,89l6,0 0,6 -6,0 0,-6z M53,89l6,0 0,6 -6,0 0,-6z M89,89l6,0 0,6 -6,0 0,-6z M95,89l6,0 0,6 -6,0 0,-6z M101,89l6,0 0,6 -6,0 0,-6z M119,89l6,0 0,6 -6,0 0,-6z M137,89l6,0 0,6 -6,0 0,-6z M143,89l6,0 0,6 -6,0 0,-6z M149,89l6,0 0,6 -6,0 0,-6z M155,89l6,0 0,6 -6,0 0,-6z M161,89l6,0 0,6 -6,0 0,-6z M173,89l6,0 0,6 -6,0 0,-6z M191,89l6,0 0,6 -6,0 0,-6z M17,95l6,0 0,6 -6,0 0,-6z M23,95l6,0 0,6 -6,0 0,-6z M35,95l6,0 0,6 -6,0 0,-6z M41,95l6,0 0,6 -6,0 0,-6z M47,95l6,0 0,6 -6,0 0,-6z M65,95l6,0 0,6 -6,0 0,-6z M71,95l6,0 0,6 -6,0 0,-6z M77,95l6,0 0,6 -6,0 0,-6z M83,95l6,0 0,6 -6,0 0,-6z M89,95l6,0 0,6 -6,0 0,-6z M95,95l6,0 0,6 -6,0 0,-6z M101,95l6,0 0,6 -6,0 0,-6z M107,95l6,0 0,6 -6,0 0,-6z M125,95l6,0 0,6 -6,0 0,-6z M167,95l6,0 0,6 -6,0 0,-6z M173,95l6,0 0,6 -6,0 0,-6z M179,95l6,0 0,6 -6,0 0,-6z M11,101l6,0 0,6 -6,0 0,-6z M29,101l6,0 0,6 -6,0 0,-6z M35,101l6,0 0,6 -6,0 0,-6z M59,101l6,0 0,6 -6,0 0,-6z M65,101l6,0 0,6 -6,0 0,-6z M77,101l6,0 0,6 -6,0 0,-6z M125,101l6,0 0,6 -6,0 0,-6z M143,101l6,0 0,6 -6,0 0,-6z M149,101l6,0 0,6 -6,0 0,-6z M155,101l6,0 0,6 -6,0 0,-6z M179,101l6,0 0,6 -6,0 0,-6z M185,101l6,0 0,6 -6,0 0,-6z M191,101l6,0 0,6 -6,0 0,-6z M197,101l6,0 0,6 -6,0 0,-6z M11,107l6,0 0,6 -6,0 0,-6z M47,107l6,0 0,6 -6,0 0,-6z M53,107l6,0 0,6 -6,0 0,-6z M65,107l6,0 0,6 -6,0 0,-6z M71,107l6,0 0,6 -6,0 0,-6z M89,107l6,0 0,6 -6,0 0,-6z M101,107l6,0 0,6 -6,0 0,-6z M107,107l6,0 0,6 -6,0 0,-6z M149,107l6,0 0,6 -6,0 0,-6z M161,107l6,0 0,6 -6,0 0,-6z M167,107l6,0 0,6 -6,0 0,-6z M179,107l6,0 0,6 -6,0 0,-6z M185,107l6,0 0,6 -6,0 0,-6z M203,107l6,0 0,6 -6,0 0,-6z M17,113l6,0 0,6 -6,0 0,-6z M29,113l6,0 0,6 -6,0 0,-6z M35,113l6,0 0,6 -6,0 0,-6z M59,113l6,0 0,6 -6,0 0,-6z M77,113l6,0 0,6 -6,0 0,-6z M83,113l6,0 0,6 -6,0 0,-6z M101,113l6,0 0,6 -6,0 0,-6z M107,113l6,0 0,6 -6,0 0,-6z M119,113l6,0 0,6 -6,0 0,-6z M125,113l6,0 0,6 -6,0 0,-6z M131,113l6,0 0,6 -6,0 0,-6z M137,113l6,0 0,6 -6,0 0,-6z M149,113l6,0 0,6 -6,0 0,-6z M167,113l6,0 0,6 -6,0 0,-6z M173,113l6,0 0,6 -6,0 0,-6z M179,113l6,0 0,6 -6,0 0,-6z M185,113l6,0 0,6 -6,0 0,-6z M197,113l6,0 0,6 -6,0 0,-6z M203,113l6,0 0,6 -6,0 0,-6z M11,119l6,0 0,6 -6,0 0,-6z M35,119l6,0 0,6 -6,0 0,-6z M47,119l6,0 0,6 -6,0 0,-6z M53,119l6,0 0,6 -6,0 0,-6z M65,119l6,0 0,6 -6,0 0,-6z M77,119l6,0 0,6 -6,0 0,-6z M95,119l6,0 0,6 -6,0 0,-6z M101,119l6,0 0,6 -6,0 0,-6z M107,119l6,0 0,6 -6,0 0,-6z M113,119l6,0 0,6 -6,0 0,-6z M125,119l6,0 0,6 -6,0 0,-6z M131,119l6,0 0,6 -6,0 0,-6z M137,119l6,0 0,6 -6,0 0,-6z M149,119l6,0 0,6 -6,0 0,-6z M155,119l6,0 0,6 -6,0 0,-6z M167,119l6,0 0,6 -6,0 0,-6z M179,119l6,0 0,6 -6,0 0,-6z M191,119l6,0 0,6 -6,0 0,-6z M203,119l6,0 0,6 -6,0 0,-6z M11,125l6,0 0,6 -6,0 0,-6z M17,125l6,0 0,6 -6,0 0,-6z M23,125l6,0 0,6 -6,0 0,-6z M41,125l6,0 0,6 -6,0 0,-6z M53,125l6,0 0,6 -6,0 0,-6z M59,125l6,0 0,6 -6,0 0,-6z M71,125l6,0 0,6 -6,0 0,-6z M83,125l6,0 0,6 -6,0 0,-6z M89,125l6,0 0,6 -6,0 0,-6z M107,125l6,0 0,6 -6,0 0,-6z M119,125l6,0 0,6 -6,0 0,-6z M125,125l6,0 0,6 -6,0 0,-6z M131,125l6,0 0,6 -6,0 0,-6z M155,125l6,0 0,6 -6,0 0,-6z M167,125l6,0 0,6 -6,0 0,-6z M179,125l6,0 0,6 -6,0 0,-6z M185,125l6,0 0,6 -6,0 0,-6z M191,125l6,0 0,6 -6,0 0,-6z M203,125l6,0 0,6 -6,0 0,-6z M11,131l6,0 0,6 -6,0 0,-6z M17,131l6,0 0,6 -6,0 0,-6z M41,131l6,0 0,6 -6,0 0,-6z M47,131l6,0 0,6 -6,0 0,-6z M83,131l6,0 0,6 -6,0 0,-6z M95,131l6,0 0,6 -6,0 0,-6z M101,131l6,0 0,6 -6,0 0,-6z M113,131l6,0 0,6 -6,0 0,-6z M119,131l6,0 0,6 -6,0 0,-6z M125,131l6,0 0,6 -6,0 0,-6z M143,131l6,0 0,6 -6,0 0,-6z M161,131l6,0 0,6 -6,0 0,-6z M173,131l6,0 0,6 -6,0 0,-6z M197,131l6,0 0,6 -6,0 0,-6z M203,131l6,0 0,6 -6,0 0,-6z M11,137l6,0 0,6 -6,0 0,-6z M17,137l6,0 0,6 -6,0 0,-6z M29,137l6,0 0,6 -6,0 0,-6z M41,137l6,0 0,6 -6,0 0,-6z M53,137l6,0 0,6 -6,0 0,-6z M59,137l6,0 0,6 -6,0 0,-6z M65,137l6,0 0,6 -6,0 0,-6z M71,137l6,0 0,6 -6,0 0,-6z M101,137l6,0 0,6 -6,0 0,-6z M107,137l6,0 0,6 -6,0 0,-6z M137,137l6,0 0,6 -6,0 0,-6z M143,137l6,0 0,6 -6,0 0,-6z M161,137l6,0 0,6 -6,0 0,-6z M173,137l6,0 0,6 -6,0 0,-6z M179,137l6,0 0,6 -6,0 0,-6z M191,137l6,0 0,6 -6,0 0,-6z M197,137l6,0 0,6 -6,0 0,-6z M11,143l6,0 0,6 -6,0 0,-6z M47,143l6,0 0,6 -6,0 0,-6z M83,143l6,0 0,6 -6,0 0,-6z M101,143l6,0 0,6 -6,0 0,-6z M113,143l6,0 0,6 -6,0 0,-6z M131,143l6,0 0,6 -6,0 0,-6z M137,143l6,0 0,6 -6,0 0,-6z M143,143l6,0 0,6 -6,0 0,-6z M149,143l6,0 0,6 -6,0 0,-6z M155,143l6,0 0,6 -6,0 0,-6z M179,143l6,0 0,6 -6,0 0,-6z M191,143l6,0 0,6 -6,0 0,-6z M197,143l6,0 0,6 -6,0 0,-6z M203,143l6,0 0,6 -6,0 0,-6z M11,149l6,0 0,6 -6,0 0,-6z M23,149l6,0 0,6 -6,0 0,-6z M29,149l6,0 0,6 -6,0 0,-6z M41,149l6,0 0,6 -6,0 0,-6z M95,149l6,0 0,6 -6,0 0,-6z M101,149l6,0 0,6 -6,0 0,-6z M107,149l6,0 0,6 -6,0 0,-6z M113,149l6,0 0,6 -6,0 0,-6z M125,149l6,0 0,6 -6,0 0,-6z M131,149l6,0 0,6 -6,0 0,-6z M149,149l6,0 0,6 -6,0 0,-6z M167,149l6,0 0,6 -6,0 0,-6z M173,149l6,0 0,6 -6,0 0,-6z M185,149l6,0 0,6 -6,0 0,-6z M191,149l6,0 0,6 -6,0 0,-6z M11,155l6,0 0,6 -6,0 0,-6z M17,155l6,0 0,6 -6,0 0,-6z M23,155l6,0 0,6 -6,0 0,-6z M29,155l6,0 0,6 -6,0 0,-6z M35,155l6,0 0,6 -6,0 0,-6z M47,155l6,0 0,6 -6,0 0,-6z M65,155l6,0 0,6 -6,0 0,-6z M71,155l6,0 0,6 -6,0 0,-6z M83,155l6,0 0,6 -6,0 0,-6z M119,155l6,0 0,6 -6,0 0,-6z M131,155l6,0 0,6 -6,0 0,-6z M143,155l6,0 0,6 -6,0 0,-6z M149,155l6,0 0,6 -6,0 0,-6z M155,155l6,0 0,6 -6,0 0,-6z M161,155l6,0 0,6 -6,0 0,-6z M167,155l6,0 0,6 -6,0 0,-6z M173,155l6,0 0,6 -6,0 0,-6z M179,155l6,0 0,6 -6,0 0,-6z M197,155l6,0 0,6 -6,0 0,-6z M59,161l6,0 0,6 -6,0 0,-6z M65,161l6,0 0,6 -6,0 0,-6z M71,161l6,0 0,6 -6,0 0,-6z M83,161l6,0 0,6 -6,0 0,-6z M89,161l6,0 0,6 -6,0 0,-6z M101,161l6,0 0,6 -6,0 0,-6z M137,161l6,0 0,6 -6,0 0,-6z M143,161l6,0 0,6 -6,0 0,-6z M155,161l6,0 0,6 -6,0 0,-6z M179,161l6,0 0,6 -6,0 0,-6z M191,161l6,0 0,6 -6,0 0,-6z M197,161l6,0 0,6 -6,0 0,-6z M11,167l6,0 0,6 -6,0 0,-6z M17,167l6,0 0,6 -6,0 0,-6z M23,167l6,0 0,6 -6,0 0,-6z M29,167l6,0 0,6 -6,0 0,-6z M35,167l6,0 0,6 -6,0 0,-6z M41,167l6,0 0,6 -6,0 0,-6z M47,167l6,0 0,6 -6,0 0,-6z M101,167l6,0 0,6 -6,0 0,-6z M113,167l6,0 0,6 -6,0 0,-6z M125,167l6,0 0,6 -6,0 0,-6z M143,167l6,0 0,6 -6,0 0,-6z M155,167l6,0 0,6 -6,0 0,-6z M167,167l6,0 0,6 -6,0 0,-6z M179,167l6,0 0,6 -6,0 0,-6z M11,173l6,0 0,6 -6,0 0,-6z M47,173l6,0 0,6 -6,0 0,-6z M83,173l6,0 0,6 -6,0 0,-6z M95,173l6,0 0,6 -6,0 0,-6z M125,173l6,0 0,6 -6,0 0,-6z M131,173l6,0 0,6 -6,0 0,-6z M143,173l6,0 0,6 -6,0 0,-6z M149,173l6,0 0,6 -6,0 0,-6z M155,173l6,0 0,6 -6,0 0,-6z M179,173l6,0 0,6 -6,0 0,-6z M191,173l6,0 0,6 -6,0 0,-6z M197,173l6,0 0,6 -6,0 0,-6z M203,173l6,0 0,6 -6,0 0,-6z M11,179l6,0 0,6 -6,0 0,-6z M23,179l6,0 0,6 -6,0 0,-6z M29,179l6,0 0,6 -6,0 0,-6z M35,179l6,0 0,6 -6,0 0,-6z M47,179l6,0 0,6 -6,0 0,-6z M59,179l6,0 0,6 -6,0 0,-6z M65,179l6,0 0,6 -6,0 0,-6z M77,179l6,0 0,6 -6,0 0,-6z M89,179l6,0 0,6 -6,0 0,-6z M101,179l6,0 0,6 -6,0 0,-6z M107,179l6,0 0,6 -6,0 0,-6z M119,179l6,0 0,6 -6,0 0,-6z M125,179l6,0 0,6 -6,0 0,-6z M131,179l6,0 0,6 -6,0 0,-6z M137,179l6,0 0,6 -6,0 0,-6z M143,179l6,0 0,6 -6,0 0,-6z M149,179l6,0 0,6 -6,0 0,-6z M155,179l6,0 0,6 -6,0 0,-6z M161,179l6,0 0,6 -6,0 0,-6z M167,179l6,0 0,6 -6,0 0,-6z M173,179l6,0 0,6 -6,0 0,-6z M179,179l6,0 0,6 -6,0 0,-6z M197,179l6,0 0,6 -6,0 0,-6z M203,179l6,0 0,6 -6,0 0,-6z M11,185l6,0 0,6 -6,0 0,-6z M23,185l6,0 0,6 -6,0 0,-6z M29,185l6,0 0,6 -6,0 0,-6z M35,185l6,0 0,6 -6,0 0,-6z M47,185l6,0 0,6 -6,0 0,-6z M59,185l6,0 0,6 -6,0 0,-6z M65,185l6,0 0,6 -6,0 0,-6z M83,185l6,0 0,6 -6,0 0,-6z M101,185l6,0 0,6 -6,0 0,-6z M119,185l6,0 0,6 -6,0 0,-6z M125,185l6,0 0,6 -6,0 0,-6z M149,185l6,0 0,6 -6,0 0,-6z M155,185l6,0 0,6 -6,0 0,-6z M185,185l6,0 0,6 -6,0 0,-6z M11,191l6,0 0,6 -6,0 0,-6z M23,191l6,0 0,6 -6,0 0,-6z M29,191l6,0 0,6 -6,0 0,-6z M35,191l6,0 0,6 -6,0 0,-6z M47,191l6,0 0,6 -6,0 0,-6z M71,191l6,0 0,6 -6,0 0,-6z M77,191l6,0 0,6 -6,0 0,-6z M89,191l6,0 0,6 -6,0 0,-6z M101,191l6,0 0,6 -6,0 0,-6z M107,191l6,0 0,6 -6,0 0,-6z M125,191l6,0 0,6 -6,0 0,-6z M131,191l6,0 0,6 -6,0 0,-6z M143,191l6,0 0,6 -6,0 0,-6z M149,191l6,0 0,6 -6,0 0,-6z M155,191l6,0 0,6 -6,0 0,-6z M173,191l6,0 0,6 -6,0 0,-6z M179,191l6,0 0,6 -6,0 0,-6z M185,191l6,0 0,6 -6,0 0,-6z M203,191l6,0 0,6 -6,0 0,-6z M11,197l6,0 0,6 -6,0 0,-6z M47,197l6,0 0,6 -6,0 0,-6z M59,197l6,0 0,6 -6,0 0,-6z M65,197l6,0 0,6 -6,0 0,-6z M89,197l6,0 0,6 -6,0 0,-6z M101,197l6,0 0,6 -6,0 0,-6z M119,197l6,0 0,6 -6,0 0,-6z M167,197l6,0 0,6 -6,0 0,-6z M173,197l6,0 0,6 -6,0 0,-6z M179,197l6,0 0,6 -6,0 0,-6z M191,197l6,0 0,6 -6,0 0,-6z M197,197l6,0 0,6 -6,0 0,-6z M203,197l6,0 0,6 -6,0 0,-6z M11,203l6,0 0,6 -6,0 0,-6z M17,203l6,0 0,6 -6,0 0,-6z M23,203l6,0 0,6 -6,0 0,-6z M29,203l6,0 0,6 -6,0 0,-6z M35,203l6,0 0,6 -6,0 0,-6z M41,203l6,0 0,6 -6,0 0,-6z M47,203l6,0 0,6 -6,0 0,-6z M59,203l6,0 0,6 -6,0 0,-6z M77,203l6,0 0,6 -6,0 0,-6z M101,203l6,0 0,6 -6,0 0,-6z M113,203l6,0 0,6 -6,0 0,-6z M143,203l6,0 0,6 -6,0 0,-6z M149,203l6,0 0,6 -6,0 0,-6z M155,203l6,0 0,6 -6,0 0,-6z M167,203l6,0 0,6 -6,0 0,-6z " stroke="transparent" fill="#000000"/></svg>